<?xml version="1.0" encoding="UTF-8"?>
<svg version="1.1" viewBox="0 0 216 276" xmlns="http://www.w3.org/2000/svg" xmlns:xlink="http://www.w3.org/1999/xlink">
    <title>DD20CC02-306C-4348-BFA9-DDE5A31E3AEB</title>
    <desc>Created with sketchtool.</desc>
    <defs>
        <rect id="a" width="180" height="240" rx="8"/>
        <filter id="b" x="-15.8%" y="-10.6%" width="131.7%" height="123.8%">
            <feOffset dx="0" dy="3" in="SourceAlpha" result="shadowOffsetOuter1"/>
            <feGaussianBlur in="shadowOffsetOuter1" result="shadowBlurOuter1" stdDeviation="9"/>
            <feColorMatrix in="shadowBlurOuter1"
                           values="0 0 0 0 0.0689041241   0 0 0 0 0.0586081993   0 0 0 0 0.0689041241  0 0 0 0.0961843297 0"/>
        </filter>
    </defs>
    <g fill="none" fill-rule="evenodd">
        <g transform="translate(-914 -1657)">
            <g transform="translate(0 1436)">
                <g transform="translate(932 66)">
                    <g transform="translate(0 170)">
                        <use fill="black" filter="url(#b)" xlink:href="#a"/>
                        <use fill="#FFFFFF" fill-rule="evenodd" xlink:href="#a"/>
                        <circle cx="90" cy="90" r="48" fill="#F5F4F5"/>
                        <circle cx="130" cy="53" r="14" fill="#D753A9"/>
                        <rect x="30" y="170" width="120" height="30" rx="15" fill="#8143E1"/>
                        <rect x="50" y="181" width="80" height="8" rx="4" fill="#9151F3"/>
                        <g transform="translate(53 49)" fill="#171717" fill-rule="nonzero">
                            <path d="m36.003 9.1193c-0.61531 0-1.1142 0.50149-1.1142 1.12v3.6734l-5.855 1.9611-11.081 2.228c-0.13438 0.026797-0.26332 0.078204-0.37974 0.15203l-12.256 7.8401c-0.51956 0.33196-0.67244 1.0249-0.3422 1.5471l7.7994 12.32c0.17736 0.27836 0.46733 0.46376 0.79321 0.50696 0.32643 0.043204 0.65448-0.060157 0.89713-0.28328l2.5973-2.3664v30.661c0 0.61852 0.49889 1.12 1.1142 1.12h35.654c0.61531 0 1.1142-0.50149 1.1142-1.12v-30.422l2.6375 2.1684c0.23883 0.19961 0.55057 0.28766 0.85795 0.24172 0.30684-0.041563 0.58267-0.2111 0.75948-0.46704l7.7994-11.2c0.34873-0.49985 0.23394-1.1884-0.25733-1.5477l-12.256-8.9601c-0.13003-0.095157-0.27909-0.16024-0.43632-0.19141l-11.077-2.228-5.855-1.9611v-2.7125c2.2371-0.58626 3.6549-2.7962 3.2626-5.0865-0.39225-2.2898-2.4634-3.8965-4.7664-3.6969-2.3035 0.19961-4.0705 2.1389-4.0673 4.4626 0 0.61852 0.49889 1.12 1.1142 1.12 0.61531 0 1.1142-0.50149 1.1142-1.12 0-1.237 0.99777-2.24 2.2284-2.24 1.2306 0 2.2284 1.003 2.2284 2.24 0 1.237-0.99777 2.24-2.2284 2.24zm0 6.7802l5.4932 1.8435c-0.37593 2.7601-2.7218 4.8175-5.4932 4.8175s-5.1167-2.0574-5.4932-4.8175l5.4932-1.8435zm28.544 12.519l-6.4828 9.3107-3.527-2.9018c-0.3335-0.27508-0.79485-0.33196-1.1844-0.14602-0.38899 0.18539-0.63707 0.58024-0.63653 1.0139v31.665h-33.426v-32.074c0-0.44352-0.26005-0.84493-0.66319-1.0243-0.40368-0.17938-0.87428-0.10281-1.2007 0.19578l-3.4775 3.1785-6.4915-10.252 11.142-7.127 9.716-1.9535c0.6485 3.7571 3.8915 6.5002 7.6846 6.5002 3.7931 0 7.0361-2.7432 7.6846-6.5002l9.6845 1.948 11.178 8.1671z"/>
                        </g>
                        <path d="m124 49.835c0-0.49451 0.068692-0.91758 0.20608-1.2692s0.32761-0.64286 0.57067-0.87363 0.53633-0.39835 0.87979-0.50275c0.34346-0.1044 0.71598-0.15659 1.1176-0.15659 0.40159 0 0.77146 0.04945 1.1096 0.14835 0.33818 0.098902 0.63144 0.25824 0.87979 0.47802 0.24835 0.21978 0.44122 0.50824 0.5786 0.86538 0.13738 0.35714 0.21136 0.79395 0.22193 1.3104-0.010568 0.51649-0.084544 0.9533-0.22193 1.3104s-0.33025 0.6456-0.5786 0.86538-0.54161 0.37912-0.87979 0.47802c-0.33818 0.098902-0.70806 0.14835-1.1096 0.14835-0.40159 0-0.77411-0.04945-1.1176-0.14835s-0.63672-0.25824-0.87979-0.47802-0.43329-0.50824-0.57067-0.86538-0.20608-0.79395-0.20608-1.3104zm1.8388 0c0 0.94506 0.31175 1.4176 0.93527 1.4176 0.32761 0 0.56275-0.10165 0.70542-0.30495 0.14267-0.2033 0.21929-0.57417 0.22986-1.1126-0.010568-0.52748-0.087185-0.8956-0.22986-1.1044-0.14267-0.20879-0.3778-0.31319-0.70542-0.31319-0.32761 0-0.56539 0.10439-0.71334 0.31319-0.14795 0.20879-0.22193 0.57692-0.22193 1.1044zm4.5971 6.0989c0-0.49451 0.068692-0.91758 0.20608-1.2692s0.32761-0.64286 0.57067-0.87363 0.53633-0.39835 0.87979-0.50275c0.34346-0.1044 0.71598-0.15659 1.1176-0.15659 0.40159 0 0.77146 0.04945 1.1096 0.14835s0.63144 0.25824 0.87979 0.47802c0.24835 0.21978 0.44121 0.50824 0.5786 0.86538 0.13738 0.35714 0.21136 0.79395 0.22193 1.3104-0.010568 0.51649-0.084544 0.9533-0.22193 1.3104s-0.33025 0.6456-0.5786 0.86538-0.54161 0.37912-0.87979 0.47802-0.70806 0.14835-1.1096 0.14835c-0.40159 0-0.77411-0.04945-1.1176-0.14835-0.34346-0.098902-0.63672-0.25824-0.87979-0.47802s-0.43329-0.50824-0.57067-0.86538-0.20608-0.79395-0.20608-1.3104zm1.8388 0c0 0.94506 0.31175 1.4176 0.93527 1.4176 0.32761 0 0.56275-0.10165 0.70542-0.30495s0.21929-0.57417 0.22985-1.1126c-0.010568-0.52748-0.087185-0.8956-0.22985-1.1044-0.14267-0.20879-0.37781-0.31319-0.70542-0.31319-0.32761 0-0.56539 0.10439-0.71334 0.31319-0.14795 0.20879-0.22193 0.57692-0.22193 1.1044zm1.6486-8.9341l1.1572 1.0879-9.1308 10.912-1.1572-1.1374 9.1308-10.863z"
                              fill="#fff" fill-rule="nonzero"/>
                    </g>
                </g>
            </g>
        </g>
    </g>
</svg>
