<?xml version="1.0" encoding="UTF-8"?>
<svg version="1.1" viewBox="0 0 216 276" xmlns="http://www.w3.org/2000/svg" xmlns:xlink="http://www.w3.org/1999/xlink">
    <title>FB339BFA-0D32-45F6-B41F-9B514A58B33D</title>
    <desc>Created with sketchtool.</desc>
    <defs>
        <rect id="a" width="180" height="240" rx="8"/>
        <filter id="b" x="-15.8%" y="-10.6%" width="131.7%" height="123.8%">
            <feOffset dx="0" dy="3" in="SourceAlpha" result="shadowOffsetOuter1"/>
            <feGaussianBlur in="shadowOffsetOuter1" result="shadowBlurOuter1" stdDeviation="9"/>
            <feColorMatrix in="shadowBlurOuter1"
                           values="0 0 0 0 0.0689041241   0 0 0 0 0.0586081993   0 0 0 0 0.0689041241  0 0 0 0.0961843297 0"/>
        </filter>
    </defs>
    <g fill="none" fill-rule="evenodd">
        <g transform="translate(-1364 -1607)">
            <g transform="translate(0 1436)">
                <g transform="translate(932 66)">
                    <g transform="translate(450 120)">
                        <use fill="black" filter="url(#b)" xlink:href="#a"/>
                        <use fill="#FFFFFF" fill-rule="evenodd" xlink:href="#a"/>
                        <circle cx="90" cy="90" r="48" fill="#F5F4F5"/>
                        <circle cx="130" cy="53" r="14" fill="#D753A9"/>
                        <rect x="30" y="170" width="120" height="30" rx="15" fill="#8143E1"/>
                        <rect x="50" y="181" width="80" height="8" rx="4" fill="#9151F3"/>
                        <g transform="translate(53 49)" fill="#171717" fill-rule="nonzero">
                            <path d="m39.885 45c0.63 0 1.05 0.4902 1.05 0.98039 0 0.58824-0.42 0.98039-1.05 0.98039h-7.875c-0.63 0-1.05-0.39216-1.05-0.98039s0.42-0.98039 1.05-0.98039h7.875zm24.675-6.2745c2.835 0.19608 5.04 2.451 5.04 5.098v10c0 0.58824-0.42 0.98039-1.05 0.98039h-5.67c-0.525 2.8431-3.15 5.098-6.405 5.098s-5.88-2.2549-6.405-5.098h-25.62c-0.525 2.9412-3.255 5.1961-6.51 5.1961s-5.985-2.2549-6.51-5.1961h-7.98c-0.63 0-1.05-0.39216-1.05-0.98039 0.105-5.098-0.105-5.7843 0.21-7.451 1.05-4.4118 5.25-7.6471 10.185-7.6471h6.825c3.045-1.6667 9.975-8.7255 22.995-8.7255 13.545 0 20.79 8.0392 21.945 8.7255zm-0.525 1.9608v1.8627c0 0.68627 0.63 1.2745 1.365 1.2745h2.1c0-3.0392-3.36-3.1373-3.465-3.1373zm-2.73-1.9608c-0.315-0.19608-3.675-3.3333-9.555-5.2941l3.885 5.2941h5.67zm-12.705-6.1765c-1.995-0.39216-3.99-0.58824-6.09-0.68627-1.05 0-1.995 0.098039-3.045 0.19608v6.5686h13.65l-4.515-6.0784zm-11.235-0.19608c-8.19 1.3725-12.705 5.4902-14.175 6.2745h14.175v-6.2745zm-32.34 13.431c3.36 0.098039 5.88-2.2549 5.775-4.902-2.625 0.68627-4.83 2.451-5.775 4.902zm12.915 12.255c2.52 0 4.515-1.8627 4.515-4.2157s-1.995-4.2157-4.515-4.2157-4.515 1.8627-4.515 4.2157 1.995 4.2157 4.515 4.2157zm38.535-0.098039c2.415 0 4.41-1.7647 4.41-4.1176 0-2.2549-1.995-4.1176-4.41-4.1176s-4.41 1.8627-4.41 4.1176c0 2.2549 1.995 4.1176 4.41 4.1176zm6.405-5.098h4.515v-7.2549h-2.1c-1.89 0-3.465-1.4706-3.465-3.2353v-1.7647h-49.035c0.315 4.2157-3.675 7.451-8.295 7.0588v5.1961h6.93c0.525-2.9412 3.255-5.1961 6.51-5.1961s5.985 2.2549 6.51 5.1961h25.62c0.525-2.8431 3.15-5.098 6.405-5.098s5.88 2.2549 6.405 5.098z"/>
                        </g>
                        <path d="m124 49.835c0-0.49451 0.068692-0.91758 0.20608-1.2692s0.32761-0.64286 0.57067-0.87363 0.53633-0.39835 0.87979-0.50275c0.34346-0.1044 0.71598-0.15659 1.1176-0.15659 0.40159 0 0.77146 0.04945 1.1096 0.14835 0.33818 0.098902 0.63144 0.25824 0.87979 0.47802 0.24835 0.21978 0.44122 0.50824 0.5786 0.86538 0.13738 0.35714 0.21136 0.79395 0.22193 1.3104-0.010568 0.51649-0.084544 0.9533-0.22193 1.3104s-0.33025 0.6456-0.5786 0.86538-0.54161 0.37912-0.87979 0.47802c-0.33818 0.098902-0.70806 0.14835-1.1096 0.14835-0.40159 0-0.77411-0.04945-1.1176-0.14835s-0.63672-0.25824-0.87979-0.47802-0.43329-0.50824-0.57067-0.86538-0.20608-0.79395-0.20608-1.3104zm1.8388 0c0 0.94506 0.31175 1.4176 0.93527 1.4176 0.32761 0 0.56275-0.10165 0.70542-0.30495 0.14267-0.2033 0.21929-0.57417 0.22986-1.1126-0.010568-0.52748-0.087185-0.8956-0.22986-1.1044-0.14267-0.20879-0.3778-0.31319-0.70542-0.31319-0.32761 0-0.56539 0.10439-0.71334 0.31319-0.14795 0.20879-0.22193 0.57692-0.22193 1.1044zm4.5971 6.0989c0-0.49451 0.068692-0.91758 0.20608-1.2692s0.32761-0.64286 0.57067-0.87363 0.53633-0.39835 0.87979-0.50275c0.34346-0.1044 0.71598-0.15659 1.1176-0.15659 0.40159 0 0.77146 0.04945 1.1096 0.14835s0.63144 0.25824 0.87979 0.47802c0.24835 0.21978 0.44121 0.50824 0.5786 0.86538 0.13738 0.35714 0.21136 0.79395 0.22193 1.3104-0.010568 0.51649-0.084544 0.9533-0.22193 1.3104s-0.33025 0.6456-0.5786 0.86538-0.54161 0.37912-0.87979 0.47802-0.70806 0.14835-1.1096 0.14835c-0.40159 0-0.77411-0.04945-1.1176-0.14835-0.34346-0.098902-0.63672-0.25824-0.87979-0.47802s-0.43329-0.50824-0.57067-0.86538-0.20608-0.79395-0.20608-1.3104zm1.8388 0c0 0.94506 0.31175 1.4176 0.93527 1.4176 0.32761 0 0.56275-0.10165 0.70542-0.30495s0.21929-0.57417 0.22985-1.1126c-0.010568-0.52748-0.087185-0.8956-0.22985-1.1044-0.14267-0.20879-0.37781-0.31319-0.70542-0.31319-0.32761 0-0.56539 0.10439-0.71334 0.31319-0.14795 0.20879-0.22193 0.57692-0.22193 1.1044zm1.6486-8.9341l1.1572 1.0879-9.1308 10.912-1.1572-1.1374 9.1308-10.863z"
                              fill="#fff" fill-rule="nonzero"/>
                    </g>
                </g>
            </g>
        </g>
    </g>
</svg>
