<?xml version="1.0" encoding="UTF-8"?>
<svg version="1.1" viewBox="0 0 216 276" xmlns="http://www.w3.org/2000/svg" xmlns:xlink="http://www.w3.org/1999/xlink">
    <title>BC49D27B-B988-45F0-9E35-26704D21A057</title>
    <desc>Created with sketchtool.</desc>
    <defs>
        <rect id="a" width="180" height="240" rx="8"/>
        <filter id="b" x="-15.8%" y="-10.6%" width="131.7%" height="123.8%">
            <feOffset dx="0" dy="3" in="SourceAlpha" result="shadowOffsetOuter1"/>
            <feGaussianBlur in="shadowOffsetOuter1" result="shadowBlurOuter1" stdDeviation="9"/>
            <feColorMatrix in="shadowBlurOuter1"
                           values="0 0 0 0 0.0689041241   0 0 0 0 0.0586081993   0 0 0 0 0.0689041241  0 0 0 0.0961843297 0"/>
        </filter>
    </defs>
    <g fill="none" fill-rule="evenodd">
        <g transform="translate(-1154 -1487)">
            <g transform="translate(0 1436)">
                <g transform="translate(932 66)">
                    <g transform="translate(240)">
                        <use fill="black" filter="url(#b)" xlink:href="#a"/>
                        <use fill="#FFFFFF" fill-rule="evenodd" xlink:href="#a"/>
                        <circle cx="90" cy="90" r="48" fill="#F5F4F5"/>
                        <circle cx="130" cy="53" r="14" fill="#D753A9"/>
                        <rect x="30" y="170" width="120" height="30" rx="15" fill="#8143E1"/>
                        <rect x="50" y="181" width="80" height="8" rx="4" fill="#9151F3"/>
                        <g transform="translate(53 49)" fill="#171717" fill-rule="nonzero">
                            <path d="m64.828 63.656c0.64711 0 1.1719 0.52453 1.1719 1.1718s-0.52476 1.1719-1.1719 1.1719h-57.656c-0.64711 0-1.1719-0.52465-1.1719-1.1719s0.52476-1.1719 1.1719-1.1719h5.1562v-26.484h-5.1562c-0.47402 0-0.9014-0.28547-1.0828-0.7234-0.18141-0.43793-0.080976-0.94195 0.25406-1.2771l24.322-24.354c0.45773-0.45762 1.1998-0.4575 1.6574 0 0.45762 0.45773 0.45762 1.1998 0 1.6574l-22.321 22.354h4.6363l20.534-20.534c0.45785-0.45762 1.1996-0.45762 1.6574 0l20.534 20.534h4.6363l-25.999-25.999-10.187 10.187c-0.45762 0.45773-1.1996 0.45773-1.6574 0-0.45762-0.45762-0.45762-1.1996 0-1.6573l11.016-11.016c0.45785-0.45762 1.1996-0.45762 1.6574 0l28.828 28.828c0.33504 0.33516 0.43547 0.8393 0.25406 1.2771s-0.60867 0.7234-1.0827 0.7234h-5.1562v8.7891c0 0.64723-0.52476 1.1719-1.1719 1.1719-0.64711 0-1.1719-0.52465-1.1719-1.1719v-8.7891h-0.45094c-0.31078 0-0.60879-0.12352-0.82863-0.34324l-20.048-20.049-20.048 20.049c-0.21984 0.21973-0.51785 0.34324-0.82863 0.34324h-0.45094v26.485h14.062v-22.266c0-0.64723 0.52476-1.1719 1.1719-1.1719h12.187c0.64711 0 1.1719 0.52465 1.1719 1.1719v22.266h14.062v-19.277c0-0.64723 0.52476-1.1719 1.1719-1.1719 0.64711 0 1.1719 0.52465 1.1719 1.1719v19.277h5.1562zm-23.906 0v-21.094h-9.8437v21.094h9.8437zm12.656-23.438c0.64711 0 1.1719 0.52465 1.1719 1.1719v11.719c0 0.64723-0.52476 1.1719-1.1719 1.1719h-6.5625c-0.64711 0-1.1719-0.52465-1.1719-1.1719v-11.719c0-0.64723 0.52476-1.1719 1.1719-1.1719h6.5625zm-1.1719 11.719v-9.375h-4.2187v9.375h4.2187zm-27.422-11.719c0.64711 0 1.1719 0.52465 1.1719 1.1719v11.719c0 0.64723-0.52476 1.1719-1.1719 1.1719h-6.5625c-0.64711 0-1.1719-0.52465-1.1719-1.1719v-11.719c0-0.64723 0.52476-1.1719 1.1719-1.1719h6.5625zm-1.1719 11.719v-9.375h-4.2187v9.375h4.2187zm12.187-26.681c2.9723 0 5.3906 2.4183 5.3906 5.3906s-2.4183 5.3906-5.3906 5.3906-5.3906-2.4183-5.3906-5.3906 2.4183-5.3906 5.3906-5.3906zm0 8.4375c1.6801 0 3.0469-1.3669 3.0469-3.0469s-1.3668-3.0469-3.0469-3.0469-3.0469 1.3669-3.0469 3.0469 1.3668 3.0469 3.0469 3.0469zm-1.3982 18.587c0.21809 0.21797 0.34348 0.52031 0.34348 0.82852s-0.12551 0.61055-0.34348 0.82852c-0.21785 0.21797-0.52019 0.34336-0.8284 0.34336-0.3082 0-0.61043-0.12539-0.82851-0.34336-0.21809-0.21797-0.34336-0.52031-0.34336-0.82852s0.12539-0.61055 0.34336-0.82852c0.21797-0.21797 0.52031-0.34336 0.82851-0.34336 0.30808 0 0.61054 0.12539 0.8284 0.34336z"/>
                        </g>
                        <path d="m124 49.835c0-0.49451 0.068692-0.91758 0.20608-1.2692s0.32761-0.64286 0.57067-0.87363 0.53633-0.39835 0.87979-0.50275c0.34346-0.1044 0.71598-0.15659 1.1176-0.15659 0.40159 0 0.77146 0.04945 1.1096 0.14835 0.33818 0.098902 0.63144 0.25824 0.87979 0.47802 0.24835 0.21978 0.44122 0.50824 0.5786 0.86538 0.13738 0.35714 0.21136 0.79395 0.22193 1.3104-0.010568 0.51649-0.084544 0.9533-0.22193 1.3104s-0.33025 0.6456-0.5786 0.86538-0.54161 0.37912-0.87979 0.47802c-0.33818 0.098902-0.70806 0.14835-1.1096 0.14835-0.40159 0-0.77411-0.04945-1.1176-0.14835s-0.63672-0.25824-0.87979-0.47802-0.43329-0.50824-0.57067-0.86538-0.20608-0.79395-0.20608-1.3104zm1.8388 0c0 0.94506 0.31175 1.4176 0.93527 1.4176 0.32761 0 0.56275-0.10165 0.70542-0.30495 0.14267-0.2033 0.21929-0.57417 0.22986-1.1126-0.010568-0.52748-0.087185-0.8956-0.22986-1.1044-0.14267-0.20879-0.3778-0.31319-0.70542-0.31319-0.32761 0-0.56539 0.10439-0.71334 0.31319-0.14795 0.20879-0.22193 0.57692-0.22193 1.1044zm4.5971 6.0989c0-0.49451 0.068692-0.91758 0.20608-1.2692s0.32761-0.64286 0.57067-0.87363 0.53633-0.39835 0.87979-0.50275c0.34346-0.1044 0.71598-0.15659 1.1176-0.15659 0.40159 0 0.77146 0.04945 1.1096 0.14835s0.63144 0.25824 0.87979 0.47802c0.24835 0.21978 0.44121 0.50824 0.5786 0.86538 0.13738 0.35714 0.21136 0.79395 0.22193 1.3104-0.010568 0.51649-0.084544 0.9533-0.22193 1.3104s-0.33025 0.6456-0.5786 0.86538-0.54161 0.37912-0.87979 0.47802-0.70806 0.14835-1.1096 0.14835c-0.40159 0-0.77411-0.04945-1.1176-0.14835-0.34346-0.098902-0.63672-0.25824-0.87979-0.47802s-0.43329-0.50824-0.57067-0.86538-0.20608-0.79395-0.20608-1.3104zm1.8388 0c0 0.94506 0.31175 1.4176 0.93527 1.4176 0.32761 0 0.56275-0.10165 0.70542-0.30495s0.21929-0.57417 0.22985-1.1126c-0.010568-0.52748-0.087185-0.8956-0.22985-1.1044-0.14267-0.20879-0.37781-0.31319-0.70542-0.31319-0.32761 0-0.56539 0.10439-0.71334 0.31319-0.14795 0.20879-0.22193 0.57692-0.22193 1.1044zm1.6486-8.9341l1.1572 1.0879-9.1308 10.912-1.1572-1.1374 9.1308-10.863z"
                              fill="#fff" fill-rule="nonzero"/>
                    </g>
                </g>
            </g>
        </g>
    </g>
</svg>
