<?xml version="1.0" encoding="UTF-8"?>
<svg version="1.1" viewBox="0 0 216 276" xmlns="http://www.w3.org/2000/svg" xmlns:xlink="http://www.w3.org/1999/xlink">
    <title>E2133571-9F97-4F08-BC07-DFDCB4A08010</title>
    <desc>Created with sketchtool.</desc>
    <defs>
        <rect id="a" width="180" height="240" rx="8"/>
        <filter id="b" x="-15.8%" y="-10.6%" width="131.7%" height="123.8%">
            <feOffset dx="0" dy="3" in="SourceAlpha" result="shadowOffsetOuter1"/>
            <feGaussianBlur in="shadowOffsetOuter1" result="shadowBlurOuter1" stdDeviation="9"/>
            <feColorMatrix in="shadowBlurOuter1"
                           values="0 0 0 0 0.0689041241   0 0 0 0 0.0586081993   0 0 0 0 0.0689041241  0 0 0 0.0961843297 0"/>
        </filter>
    </defs>
    <g fill="none" fill-rule="evenodd">
        <g transform="translate(-1124 -1757)">
            <g transform="translate(0 1436)">
                <g transform="translate(932 66)">
                    <g transform="translate(210 270)">
                        <use fill="black" filter="url(#b)" xlink:href="#a"/>
                        <use fill="#FFFFFF" fill-rule="evenodd" xlink:href="#a"/>
                        <circle cx="90" cy="90" r="48" fill="#F5F4F5"/>
                        <circle cx="130" cy="53" r="14" fill="#D753A9"/>
                        <rect x="30" y="170" width="120" height="30" rx="15" fill="#8143E1"/>
                        <rect x="50" y="181" width="80" height="8" rx="4" fill="#9151F3"/>
                        <g transform="translate(53 49)" fill="#171717" fill-rule="nonzero">
                            <path d="m65.634 31.766c0.73395 3.987 0.22875 8.9806-0.34395 11.1-1.755 6.498-5.0356 11.841-9.4867 15.453-4.2586 3.455-9.4875 5.2812-15.121 5.2812-3.5026 0-7.067-0.69986-10.594-2.0799-0.38813-0.15183-0.77449-0.31319-1.1596-0.48083-2.4449 1.6769-5.3007 2.5609-8.2989 2.5609-8.067 0-14.63-6.5109-14.63-14.514 0-7.6338 5.9715-13.91 13.524-14.473 0.063984-0.54291 0.17414-1.0549 0.32227-1.536-1.6992-0.096144-3.2835-0.79717-4.4965-2.0005-1.7433-1.7298-2.4307-4.2737-1.794-6.639 0.10816-0.4019 0.42469-0.7159 0.82981-0.82321 0.58418-0.15462 1.1875-0.23309 1.7932-0.23309 1.8506 0 3.5905 0.71486 4.899 2.013 0.97664 0.96876 1.6216 2.1932 1.8882 3.4986 0.57316-0.36714 1.1721-0.63278 1.761-0.78926 0.62496-0.16648 1.2676 0.20182 1.4352 0.82204 0.16758 0.62011-0.20344 1.2577-0.82863 1.4238-1.0845 0.2882-3.0257 1.5384-3.4478 4.2765 1.4892 0.12614 2.9154 0.47456 4.2449 1.0117 1.0673-1.806 2.3998-3.0007 3.5959-4.0707 1.4654-1.3108 2.5241-2.258 2.6714-3.8815 0.48949-5.3952 2.0327-9.1575 4.587-11.182 1.3978-1.1079 3.0964-1.6745 4.9668-1.6693 0.46582-3.5591 2.9048-5.7873 5.1882-6.3943 0.62496-0.16648 1.2676 0.20194 1.4352 0.82204 0.16758 0.62022-0.20344 1.2578-0.82863 1.4239-1.1059 0.29401-3.1037 1.587-3.4722 4.439 1.8511 0.46212 3.3743 1.4513 4.4435 2.9023 1.92 2.6055 2.4069 6.6466 1.4476 12.011-0.29602 1.6551 0.57047 2.9907 1.6673 4.6813 0.44848 0.69126 0.93035 1.4341 1.3664 2.26 0.88289-1.5851 1.6124-3.2653 2.1621-5.021 0.11379-0.36342 0.39973-0.64859 0.76559-0.76345 0.58371-0.18322 0.71063-0.38481 0.85418-2.2857 0.037969-0.50443 0.081094-1.0762 0.16488-1.7009 0.032578-0.24286 0.14168-0.46932 0.3116-0.64708 0.99621-1.0413 2.5675-1.5075 3.6827-1.5075 0.18762 0 0.3702 0.012323 0.5427 0.036388 0.49969 0.069753 0.89836 0.44921 0.9893 0.94167l0.034453 0.18799c0.26332 1.4429 0.59098 3.2387 2.5316 4.8673 0.2073 0.17392 0.34711 0.41387 0.39586 0.6787zm-34.338 1.5281c-1.0804 0.96655-2.1906 1.9622-3.0674 3.3937 4.2129 2.5508 7.0314 7.1541 7.0314 12.398 0 0.52292-0.028594 1.0455-0.084844 1.5642 6.5945-1.511 12.588-5.6372 16.537-11.295-0.47461-1.2542-1.1726-2.3317-1.8506-3.3768-1.2098-1.8647-2.4609-3.7928-2.0043-6.3459 0.84352-4.716 0.49629-8.1588-1.0318-10.233-0.8966-1.2167-2.2215-1.9488-3.9379-2.1761-1.7379-0.23042-3.2316 0.13893-4.44 1.0968-2.0357 1.6135-3.2857 4.8347-3.7157 9.5739-0.2298 2.5315-1.8598 3.9897-3.4361 5.3998zm-14.29-3.8613c0.86578 0.8589 2.017 1.3319 3.2419 1.3318h2.344e-4c0.16301 0 0.3259-0.0086029 0.48773-0.025576 0.14379-1.354-0.33188-2.7238-1.3165-3.7005-0.86578-0.8589-2.0171-1.3319-3.2416-1.3319-0.16336 0-0.32613 0.0087192-0.48809 0.025693-0.14367 1.3541 0.33188 2.7238 1.3164 3.7005zm3.6231 31.842c2.0551 0 4.0297-0.49548 5.8031-1.4431-2.3168-1.2345-4.566-2.7553-6.7187-4.5492-0.37277-0.31064-0.51316-0.81751-0.35273-1.2735 0.6225-1.7692 1.6723-2.6919 2.7138-3.4255 0.28465-0.20042 0.64465-0.2646 0.98168-0.17496 1.6549 0.43991 3.3346 0.71486 5.0118 0.82193 0.20414-0.69533 0.30855-1.4134 0.30855-2.1445 0-1.0053-0.19488-1.9863-0.57938-2.9163-0.24563-0.59407 0.040781-1.2731 0.63949-1.5168 0.59918-0.24379 1.2834 0.040573 1.5289 0.63441 0.50074 1.2113 0.75469 2.4894 0.75469 3.7987 0 0.73915-0.083906 1.4677-0.24445 2.1807 0.76254-0.025809 1.5216-0.087076 2.2754-0.18357 0.1091-0.65812 0.1643-1.3271 0.1643-1.9972 0-6.721-5.5117-12.189-12.287-12.189-6.7747 0-12.286 5.4677-12.286 12.189 0 6.721 5.5116 12.189 12.286 12.189zm42.397-19.01c0.51797-1.9179 0.91219-6.265 0.36926-9.6902-1.9189-1.7521-2.5262-3.6495-2.8385-5.1277-0.41414 0.091145-0.82723 0.26843-1.1389 0.49234-0.043477 0.39841-0.071953 0.77601-0.099727 1.1442-0.12152 1.6108-0.2468 3.2714-1.8892 4.0913-0.81586 2.4356-1.9727 4.7778-3.4171 6.9516-0.018867 0.031156-0.039375 0.061383-0.061172 0.09068-1.8296 2.7325-4.1138 5.1968-6.7492 7.2418-5.1837 4.0226-11.248 6.1488-17.537 6.1488-2.2222 0-4.46-0.27274-6.6606-0.81135-0.41215 0.32459-0.7957 0.70486-1.1059 1.2573 5.8529 4.663 12.493 7.2217 18.784 7.2217 10.776 0 19.129-7.1067 22.344-19.01zm-19.41-21.736c2.8317 1.1109 2.6312 5.5352 1.9643 9.0513-0.10023 0.52849-0.59183 0.90016-1.1463 0.90016-0.067598 0-0.13613-0.005562-0.20501-0.017013-0.63391-0.10524-1.0565-0.67136-0.94404-1.2644 0.74568-3.9319 0.2775-6.3258-0.57039-6.6584-0.5937-0.23295-0.87306-0.87203-0.62412-1.4275 0.24895-0.55543 0.93227-0.81663 1.5255-0.58411zm5.2593 33.756c0.28422 0.65095 0.064103 1.4487-0.4918 1.7814-3.943 2.3619-7.3106 2.5156-8.1186 2.5156-0.10096 0-0.16178-0.002383-0.17908-0.0031773-0.62396-0.028596-1.1099-0.64407-1.0855-1.3746 0.02442-0.72946 0.54945-1.2966 1.1709-1.2713 0.048162 0.0025154 3.3129 0.09426 7.1825-2.2236 0.5559-0.33295 1.237-0.075196 1.5215 0.57562z"/>
                        </g>
                        <path d="m124 49.835c0-0.49451 0.068692-0.91758 0.20608-1.2692s0.32761-0.64286 0.57067-0.87363 0.53633-0.39835 0.87979-0.50275c0.34346-0.1044 0.71598-0.15659 1.1176-0.15659 0.40159 0 0.77146 0.04945 1.1096 0.14835 0.33818 0.098902 0.63144 0.25824 0.87979 0.47802 0.24835 0.21978 0.44122 0.50824 0.5786 0.86538 0.13738 0.35714 0.21136 0.79395 0.22193 1.3104-0.010568 0.51649-0.084544 0.9533-0.22193 1.3104s-0.33025 0.6456-0.5786 0.86538-0.54161 0.37912-0.87979 0.47802c-0.33818 0.098902-0.70806 0.14835-1.1096 0.14835-0.40159 0-0.77411-0.04945-1.1176-0.14835s-0.63672-0.25824-0.87979-0.47802-0.43329-0.50824-0.57067-0.86538-0.20608-0.79395-0.20608-1.3104zm1.8388 0c0 0.94506 0.31175 1.4176 0.93527 1.4176 0.32761 0 0.56275-0.10165 0.70542-0.30495 0.14267-0.2033 0.21929-0.57417 0.22986-1.1126-0.010568-0.52748-0.087185-0.8956-0.22986-1.1044-0.14267-0.20879-0.3778-0.31319-0.70542-0.31319-0.32761 0-0.56539 0.10439-0.71334 0.31319-0.14795 0.20879-0.22193 0.57692-0.22193 1.1044zm4.5971 6.0989c0-0.49451 0.068692-0.91758 0.20608-1.2692s0.32761-0.64286 0.57067-0.87363 0.53633-0.39835 0.87979-0.50275c0.34346-0.1044 0.71598-0.15659 1.1176-0.15659 0.40159 0 0.77146 0.04945 1.1096 0.14835s0.63144 0.25824 0.87979 0.47802c0.24835 0.21978 0.44121 0.50824 0.5786 0.86538 0.13738 0.35714 0.21136 0.79395 0.22193 1.3104-0.010568 0.51649-0.084544 0.9533-0.22193 1.3104s-0.33025 0.6456-0.5786 0.86538-0.54161 0.37912-0.87979 0.47802-0.70806 0.14835-1.1096 0.14835c-0.40159 0-0.77411-0.04945-1.1176-0.14835-0.34346-0.098902-0.63672-0.25824-0.87979-0.47802s-0.43329-0.50824-0.57067-0.86538-0.20608-0.79395-0.20608-1.3104zm1.8388 0c0 0.94506 0.31175 1.4176 0.93527 1.4176 0.32761 0 0.56275-0.10165 0.70542-0.30495s0.21929-0.57417 0.22985-1.1126c-0.010568-0.52748-0.087185-0.8956-0.22985-1.1044-0.14267-0.20879-0.37781-0.31319-0.70542-0.31319-0.32761 0-0.56539 0.10439-0.71334 0.31319-0.14795 0.20879-0.22193 0.57692-0.22193 1.1044zm1.6486-8.9341l1.1572 1.0879-9.1308 10.912-1.1572-1.1374 9.1308-10.863z"
                              fill="#fff" fill-rule="nonzero"/>
                    </g>
                </g>
            </g>
        </g>
    </g>
</svg>
